<svg width="30" height="30" viewBox="0 0 30 30" fill="none" xmlns="http://www.w3.org/2000/svg">
<path d="M4.2125 17.85C5.2 17.4875 5.675 16.875 6.7 16.875C8.1875 16.875 8.475 18.125 10.8625 18.125C13.3 18.125 13.475 16.875 15.025 16.875C16.5125 16.875 16.8 18.125 19.1875 18.125C21.625 18.125 21.8 16.875 23.35 16.875C24.3625 16.875 24.8125 17.45 25.7625 17.825C26.6 18.15 27.5 17.5125 27.5 16.625C27.5 16.0875 27.15 15.6125 26.6375 15.425C25.425 14.9875 25.1125 14.3875 23.325 14.3875C20.8875 14.3875 20.7125 15.6375 19.1625 15.6375C17.675 15.6375 17.3875 14.3875 15 14.3875C12.5625 14.3875 12.3875 15.6375 10.8375 15.6375C9.35 15.6375 9.0625 14.3875 6.675 14.3875C4.7375 14.3875 4.225 15.175 3.325 15.5C2.8375 15.675 2.5125 16.15 2.5125 16.675C2.5125 17.5375 3.3875 18.15 4.2125 17.85ZM2.5 23.75C2.5 25.125 3.625 26.25 5 26.25H25C26.375 26.25 27.5 25.125 27.5 23.75V22.5C27.5 21.125 26.375 20 25 20H5C3.625 20 2.5 21.125 2.5 22.5V23.75ZM27.5 11.25C27.525 6.25 22.15 3.75 15 3.75C7.8625 3.75 2.5 6.25 2.5 11.25C2.5 11.9375 3.0625 12.5 3.75 12.5H26.25C26.9375 12.5 27.5 11.9375 27.5 11.25Z" fill="white"/>
</svg>
